<svg width="75" height="25" viewBox="0 0 75 25" fill="none" xmlns="http://www.w3.org/2000/svg">
<rect width="75" height="25" rx="12.5" fill="white"/>
<path fill-rule="evenodd" clip-rule="evenodd" d="M61.5 5.0625C61.1894 5.0625 60.9375 4.81066 60.9375 4.5C60.9375 4.18934 61.1894 3.9375 61.5 3.9375H64.5C64.7276 3.9375 64.9326 4.07455 65.0197 4.28474C65.1068 4.49493 65.0587 4.73687 64.8978 4.89775L62.858 6.9375H64.5C64.8107 6.9375 65.0625 7.18934 65.0625 7.5C65.0625 7.81066 64.8107 8.0625 64.5 8.0625H61.5C61.2725 8.0625 61.0674 7.92545 60.9803 7.71526C60.8933 7.50507 60.9414 7.26313 61.1023 7.10225L63.1421 5.0625H61.5ZM58.125 9.5625C57.8144 9.5625 57.5625 9.31066 57.5625 9C57.5625 8.68934 57.8144 8.4375 58.125 8.4375H60.375C60.6026 8.4375 60.8076 8.57455 60.8947 8.78474C60.9818 8.99493 60.9337 9.23687 60.7728 9.39775L59.483 10.6875H60.375C60.6857 10.6875 60.9375 10.9393 60.9375 11.25C60.9375 11.5607 60.6857 11.8125 60.375 11.8125H58.125C57.8975 11.8125 57.6924 11.6755 57.6053 11.4652C57.5183 11.2551 57.5664 11.0131 57.7273 10.8523L59.0171 9.5625H58.125Z" fill="#E00036"/>
<path d="M57 19.5C61.1421 19.5 64.5 16.1421 64.5 12C64.5 11.653 63.9799 11.5956 63.8004 11.8926C62.9467 13.3054 61.3961 14.25 59.625 14.25C56.9326 14.25 54.75 12.0674 54.75 9.375C54.75 7.60384 55.6945 6.05329 57.1074 5.19957C57.4044 5.0201 57.347 4.5 57 4.5C52.8579 4.5 49.5 7.85786 49.5 12C49.5 16.1421 52.8579 19.5 57 19.5Z" fill="#E00036"/>
<path d="M21.75 12C21.75 14.071 20.071 15.75 18 15.75C15.9289 15.75 14.25 14.071 14.25 12C14.25 9.92893 15.9289 8.25 18 8.25C20.071 8.25 21.75 9.92893 21.75 12Z" fill="#E00036"/>
<path fill-rule="evenodd" clip-rule="evenodd" d="M18 3.9375C18.3107 3.9375 18.5625 4.18934 18.5625 4.5V6C18.5625 6.31066 18.3107 6.5625 18 6.5625C17.6893 6.5625 17.4375 6.31066 17.4375 6V4.5C17.4375 4.18934 17.6893 3.9375 18 3.9375ZM9.9375 12C9.9375 11.6893 10.1893 11.4375 10.5 11.4375H12C12.3107 11.4375 12.5625 11.6893 12.5625 12C12.5625 12.3107 12.3107 12.5625 12 12.5625H10.5C10.1893 12.5625 9.9375 12.3107 9.9375 12ZM23.4375 12C23.4375 11.6893 23.6893 11.4375 24 11.4375H25.5C25.8107 11.4375 26.0625 11.6893 26.0625 12C26.0625 12.3107 25.8107 12.5625 25.5 12.5625H24C23.6893 12.5625 23.4375 12.3107 23.4375 12ZM18 17.4375C18.3107 17.4375 18.5625 17.6893 18.5625 18V19.5C18.5625 19.8107 18.3107 20.0625 18 20.0625C17.6893 20.0625 17.4375 19.8107 17.4375 19.5V18C17.4375 17.6893 17.6893 17.4375 18 17.4375Z" fill="#E00036"/>
<g opacity="0.5">
<path d="M11.7519 5.7867C11.9615 5.55742 12.3173 5.5415 12.5466 5.75113L14.2131 7.27481C14.4423 7.48444 14.4583 7.84024 14.2486 8.06951C14.039 8.29879 13.6832 8.31472 13.454 8.10509L11.7874 6.5814C11.5582 6.37177 11.5422 6.01597 11.7519 5.7867Z" fill="#E00036"/>
<path d="M24.2489 5.7867C24.4585 6.01597 24.4426 6.37177 24.2134 6.5814L22.5468 8.10509C22.3175 8.31472 21.9617 8.29879 21.7521 8.06951C21.5425 7.84024 21.5584 7.48444 21.7877 7.27481L23.4542 5.75113C23.6835 5.5415 24.0393 5.55742 24.2489 5.7867Z" fill="#E00036"/>
<path d="M21.7695 15.7685C21.9892 15.5489 22.3453 15.5489 22.565 15.7686L24.2315 17.4353C24.4512 17.655 24.4512 18.0111 24.2315 18.2308C24.0118 18.4505 23.6556 18.4505 23.436 18.2307L21.7695 16.5641C21.5498 16.3443 21.5499 15.9882 21.7695 15.7685Z" fill="#E00036"/>
<path d="M14.2314 15.7686C14.4511 15.9882 14.4511 16.3444 14.2314 16.5641L12.5647 18.2307C12.3451 18.4504 11.9889 18.4504 11.7692 18.2307C11.5496 18.0111 11.5496 17.655 11.7692 17.4353L13.4359 15.7686C13.6556 15.549 14.0117 15.549 14.2314 15.7686Z" fill="#E00036"/>
</g>
</svg>
